<svg width="100" height="107" viewBox="0 0 100 107" fill="none" xmlns="http://www.w3.org/2000/svg">
<g filter="url(#filter0_d_543_50)">
<path d="M16.0271 46.4158C16.6224 46.664 19.4957 45.0856 24.3186 38.7014C24.6444 38.2615 25.2037 38.062 25.7346 38.197C26.8051 38.5913 27.6946 39.3627 28.2374 40.3667C29.8334 42.8144 32.2957 44.5674 35.1305 45.2752C32.8428 40.2771 33.6594 36.7482 35.2548 34.3752L35.2262 34.3608C32.2116 32.9704 28.7977 32.7085 25.6064 33.6234C25.4168 33.6686 25.2192 33.6732 25.0276 33.6369C23.9267 33.4281 23.8255 32.5343 23.6217 30.7543L23.5799 30.3975C23.4655 29.4975 23.3739 28.6832 23.3132 27.8614C23.1761 26.3767 23.172 24.8824 23.3016 23.3965C23.395 20.8644 24.3953 18.4507 26.1199 16.5949C26.1545 16.5617 26.1894 16.5299 26.2262 16.5007C27.7897 15.2947 29.5896 14.4312 31.5087 13.9668C32.2843 13.8101 32.8708 13.1725 32.962 12.3868C32.9759 12.0315 33.0002 11.3961 30.9977 10.7841C30.9423 10.7682 30.8849 10.7537 30.8263 10.7426C30.4386 10.6775 30.0407 10.7013 29.6628 10.8131C25.3991 11.8415 21.9074 14.8889 20.3115 18.9743C19.2325 21.7587 18.522 25.4923 20.7609 33.5423C20.9423 34.1939 20.6254 34.8815 20.0119 35.167C18.6438 35.8122 17.3661 36.634 16.2116 37.6115C14.7387 45.4292 16.0138 46.4097 16.0271 46.4158Z" fill="white"/>
</g>
<g filter="url(#filter1_d_543_50)">
<path d="M19.2066 70.8937C27.5494 82.1832 37.0229 89.8422 47.3634 93.6595C50.541 94.8372 53.8411 95.6513 57.2017 96.0866C63.7933 96.8536 70.4716 96.3065 76.8501 94.4767C78.3604 93.9854 78.6268 93.5607 78.6448 93.5292C78.6344 93.5272 78.5655 93.1515 77.6581 92.3508C74.7919 90.4315 69.6749 89.7077 65.5254 89.2932C64.9755 89.2334 64.5118 88.8555 64.3429 88.3284C62.768 83.2699 57.2432 79.3235 52.6063 76.4488C52.1903 76.1907 51.9416 75.7321 51.952 75.2426C52.3022 59.3579 47.1525 44.9295 38.5121 37.5879C38.4549 37.5374 38.375 37.4861 38.3094 37.4358C36.3492 40.1528 36.7453 43.6879 39.5508 48.214C39.8317 48.6679 39.8235 49.2438 39.5303 49.6893C39.2364 50.1352 38.7106 50.37 38.1825 50.2909C30.6446 49.1567 28.1487 45.7257 26.6603 43.6749C26.5455 43.516 26.4147 43.3366 26.2862 43.1673C21.9411 48.6941 18.541 51.2584 16.1581 50.8065C15.9485 50.7667 15.7441 50.7027 15.5494 50.6158C13.7512 49.8117 13.0939 47.4096 13.528 43.0149C11.0354 46.5537 10.1989 50.9997 11.2359 55.2025C12.8501 60.9006 15.5568 66.2297 19.2066 70.8937Z" fill="white"/>
</g>
<g filter="url(#filter2_d_543_50)">
<path d="M59.5236 70.2973C59.7758 70.7915 60.0666 71.2659 60.3922 71.715C66.1981 72.3114 73.4623 70.0709 76.4882 64.5122C78.5282 60.7871 79.4066 56.3364 80.2547 52.0322C80.4536 51.0251 80.6511 50.0249 80.8614 49.0428C82.0821 43.294 85.2599 38.1467 89.852 34.4791C86.5703 34.1804 83.8688 34.4025 79.9741 38.0147C75.8534 41.8348 71.513 41.9356 68.829 40.762C66.4975 39.8392 64.9501 37.6046 64.9051 35.098C64.9134 32.3205 66.8385 29.6961 70.2724 27.6795C62.7663 23.4854 55.5663 22.0538 49.802 23.6488C46.3765 24.5487 43.4259 26.7255 41.5551 29.7326L41.5881 29.7551C41.6122 29.7711 41.6347 29.7886 41.6595 29.8041C42.1017 30.0919 42.5247 30.4085 42.9258 30.7516C43.565 31.2981 44.1712 31.8666 44.7592 32.4425C44.826 32.5087 44.9017 32.5694 44.968 32.6355C47.5647 30.9102 50.9046 30.7694 53.6371 32.2705C54.0463 32.4822 54.324 32.8832 54.3767 33.3413C54.43 33.7989 54.2513 34.2529 53.901 34.5522C53.5415 34.8587 53.1751 35.1604 52.8115 35.4602C51.6235 36.3008 50.5876 37.338 49.7485 38.5275C49.7989 38.6074 49.847 38.6869 49.8922 38.7659C50.3469 39.426 50.8152 40.1728 51.2268 40.8951C51.3748 41.1548 51.518 41.4147 51.6568 41.6756C51.6822 41.7226 51.7078 41.7749 51.7321 41.8307L51.8678 41.8859C52.211 42.0394 52.5641 42.1695 52.925 42.2741C53.6727 42.4736 54.4326 42.6219 55.2002 42.72C57.5059 42.8878 59.7804 43.3534 61.9662 44.1054C63.631 44.7598 65.2475 45.5295 66.804 46.4094L67.0271 46.5335C68.3345 47.493 69.9212 47.9978 71.5434 47.9698C73.248 47.6248 74.8448 46.8774 76.2013 45.789C76.2264 45.7709 76.2524 45.7542 76.2789 45.7382L76.3313 45.7C76.7872 45.3895 77.3845 45.38 77.8507 45.6748C78.3162 45.97 78.5625 46.5141 78.4766 47.0591C77.8169 51.2384 76.2161 54.0495 73.5816 55.654C70.3189 57.6398 65.6866 57.592 59.4259 55.5151C58.8339 55.3029 58.1841 55.3199 57.6038 55.5629C57.4246 55.6486 57.259 55.7604 57.1127 55.8944L57.0654 55.9372C57.2611 56.7485 57.4431 57.5523 57.6085 58.3609C57.708 58.8543 57.802 59.3486 57.8904 59.8435C57.9235 60.0273 57.9465 60.2139 57.9676 60.4007C58.2451 60.466 58.5255 60.5162 58.8084 60.5506C61.4342 60.7273 64.0715 60.5195 66.6369 59.9335L66.9604 59.877C67.4755 59.787 67.9973 59.9948 68.3088 60.4142C68.6208 60.8337 68.67 61.3928 68.4351 61.8602C65.866 66.9767 63.3097 69.4273 59.5236 70.2973Z" fill="white"/>
</g>
<defs>
<filter id="filter0_d_543_50" x="5.50195" y="0.707031" width="39.7529" height="55.7324" filterUnits="userSpaceOnUse" color-interpolation-filters="sRGB">
<feFlood flood-opacity="0" result="BackgroundImageFix"/>
<feColorMatrix in="SourceAlpha" type="matrix" values="0 0 0 0 0 0 0 0 0 0 0 0 0 0 0 0 0 0 127 0" result="hardAlpha"/>
<feOffset/>
<feGaussianBlur stdDeviation="5"/>
<feComposite in2="hardAlpha" operator="out"/>
<feColorMatrix type="matrix" values="0 0 0 0 1 0 0 0 0 1 0 0 0 0 1 0 0 0 0.5 0"/>
<feBlend mode="normal" in2="BackgroundImageFix" result="effect1_dropShadow_543_50"/>
<feBlend mode="normal" in="SourceGraphic" in2="effect1_dropShadow_543_50" result="shape"/>
</filter>
<filter id="filter1_d_543_50" x="0.800781" y="27.4355" width="87.8438" height="78.9883" filterUnits="userSpaceOnUse" color-interpolation-filters="sRGB">
<feFlood flood-opacity="0" result="BackgroundImageFix"/>
<feColorMatrix in="SourceAlpha" type="matrix" values="0 0 0 0 0 0 0 0 0 0 0 0 0 0 0 0 0 0 127 0" result="hardAlpha"/>
<feOffset/>
<feGaussianBlur stdDeviation="5"/>
<feComposite in2="hardAlpha" operator="out"/>
<feColorMatrix type="matrix" values="0 0 0 0 1 0 0 0 0 1 0 0 0 0 1 0 0 0 0.5 0"/>
<feBlend mode="normal" in2="BackgroundImageFix" result="effect1_dropShadow_543_50"/>
<feBlend mode="normal" in="SourceGraphic" in2="effect1_dropShadow_543_50" result="shape"/>
</filter>
<filter id="filter2_d_543_50" x="31.5547" y="13.0137" width="68.2969" height="68.7949" filterUnits="userSpaceOnUse" color-interpolation-filters="sRGB">
<feFlood flood-opacity="0" result="BackgroundImageFix"/>
<feColorMatrix in="SourceAlpha" type="matrix" values="0 0 0 0 0 0 0 0 0 0 0 0 0 0 0 0 0 0 127 0" result="hardAlpha"/>
<feOffset/>
<feGaussianBlur stdDeviation="5"/>
<feComposite in2="hardAlpha" operator="out"/>
<feColorMatrix type="matrix" values="0 0 0 0 1 0 0 0 0 1 0 0 0 0 1 0 0 0 0.5 0"/>
<feBlend mode="normal" in2="BackgroundImageFix" result="effect1_dropShadow_543_50"/>
<feBlend mode="normal" in="SourceGraphic" in2="effect1_dropShadow_543_50" result="shape"/>
</filter>
</defs>
</svg>
