<svg id="OBJECTS" xmlns="http://www.w3.org/2000/svg" xmlns:xlink="http://www.w3.org/1999/xlink" viewBox="0 0 674.53 434.64"><defs><style>.cls-1,.cls-10,.cls-13,.cls-15,.cls-17,.cls-18,.cls-25,.cls-29,.cls-3,.cls-30,.cls-32,.cls-34,.cls-35,.cls-4,.cls-43,.cls-45,.cls-5,.cls-6{fill:none;}.cls-2,.cls-28{fill:#fff;}.cls-10,.cls-29,.cls-3,.cls-30,.cls-4,.cls-6{stroke:#fff;}.cls-10,.cls-29,.cls-3,.cls-30,.cls-5{stroke-miterlimit:10;}.cls-3,.cls-6{stroke-width:1.39px;}.cls-13,.cls-15,.cls-17,.cls-18,.cls-25,.cls-32,.cls-34,.cls-35,.cls-4,.cls-43,.cls-45,.cls-6{stroke-linecap:round;stroke-linejoin:round;}.cls-4{stroke-width:1.12px;}.cls-5{stroke:#b4c1ef;stroke-width:1.01px;}.cls-7{fill:#b4c1ef;}.cls-8{fill:#5e36de;}.cls-9{fill:#dc3d82;}.cls-10{stroke-width:1.36px;}.cls-11{fill:#1f0c03;}.cls-12{fill:#6a7cd9;}.cls-13{stroke:#363042;stroke-width:1.05px;}.cls-14{clip-path:url(#clip-path);}.cls-15{stroke:#494949;}.cls-15,.cls-17{stroke-width:0.63px;}.cls-16{fill:#c4735a;}.cls-17,.cls-18,.cls-25,.cls-32,.cls-34,.cls-35,.cls-43,.cls-45{stroke:#1d0006;}.cls-18{stroke-width:0.65px;}.cls-19{fill:#81bece;}.cls-20{fill:#4022c6;}.cls-21{fill:#ac503c;}.cls-22{clip-path:url(#clip-path-2);}.cls-23{fill:#1d0006;}.cls-24{clip-path:url(#clip-path-3);}.cls-25{stroke-width:0.61px;}.cls-26{clip-path:url(#clip-path-4);}.cls-27{fill:#d95758;}.cls-28{opacity:0.22;}.cls-29{stroke-width:0.79px;}.cls-30{stroke-width:0.74px;}.cls-31{clip-path:url(#clip-path-5);}.cls-32{stroke-width:0.65px;}.cls-33{fill:#e7b38e;}.cls-34{stroke-width:0.52px;}.cls-35{stroke-width:0.64px;}.cls-36{fill:#412c36;}.cls-37{fill:#e27cae;}.cls-38{fill:#e69624;}.cls-39{fill:#d9a07d;}.cls-40{fill:#cb8d6d;}.cls-41{clip-path:url(#clip-path-6);}.cls-42{clip-path:url(#clip-path-7);}.cls-43{stroke-width:0.61px;}.cls-44{fill:#d9699f;}.cls-45{stroke-width:0.72px;}</style><clipPath id="clip-path"><path class="cls-1" d="M87.37,165.36l21.25,236.69a5.85,5.85,0,0,0,5.82,5.33H248.19a5.18,5.18,0,0,0,5.15-5.66L242,279.12l124.23-61.68-33.34-57.71-69.74-23.35L293,57.5,240.83,23.25,167.5,65.72Z"/></clipPath><clipPath id="clip-path-2"><path class="cls-2" d="M238.75,99.84s-2.55-9.57-14.86-3.16C223.89,96.68,228.32,104.52,238.75,99.84Z"/></clipPath><clipPath id="clip-path-3"><path class="cls-2" d="M247.19,100.52s2.91-7.92,9.67-.37C256.86,100.15,251.69,106.77,247.19,100.52Z"/></clipPath><clipPath id="clip-path-4"><path d="M245.61,114l-14-2.46s-1.22,6.54,6.18,7.69S245.61,114,245.61,114Z"/></clipPath><clipPath id="clip-path-5"><path class="cls-1" d="M584.16,165.36,562.82,402.61c-.27,3-1.93,4.77-5,4.77H423.34a5.17,5.17,0,0,1-5.15-5.66l11.32-122.6L319,184.46,321.74,146l86.62-9.61L378.51,57.5l52.18-34.25,106.5,8.89Z"/></clipPath><clipPath id="clip-path-6"><path class="cls-2" d="M437.35,105.84s1.7-9.78,14.55-4.46C451.9,101.38,448.16,109.59,437.35,105.84Z"/></clipPath><clipPath id="clip-path-7"><path class="cls-2" d="M429,107.26s-3.6-7.65-9.69.47C419.3,107.73,425,113.88,429,107.26Z"/></clipPath></defs><polygon class="cls-3" points="583.93 39.95 532.51 34.16 588.97 5.42 583.93 39.95"/><polyline class="cls-3" points="567.49 38.66 554.91 54.85 554.91 36.68 588.17 6.53"/><polygon class="cls-4" points="314.95 279.6 352.21 280.81 314.95 254.46 314.95 279.6"/><polyline class="cls-4" points="326.81 280.39 334.09 293.23 335.97 280.28 315.4 255.33"/><path class="cls-5" d="M334.84,297.26c1,8,4.71,15.78,10.84,21s14.82,7.62,22.57,5.44a9.49,9.49,0,0,0,4.82-2.95c3.31-4,1.63-9.46-1-12-3.13-3-8.08-3.76-11.59-1.27s-5.14,7-5.16,11.33A20,20,0,0,0,391,331.42"/><circle class="cls-6" cx="646.89" cy="200.38" r="11.47" transform="translate(47.78 516.11) rotate(-45)"/><line class="cls-6" x1="8.95" y1="341.69" x2="38.95" y2="341.69"/><line class="cls-6" x1="15.2" y1="88.36" x2="36.09" y2="88.36"/><line class="cls-6" x1="373.74" y1="15.98" x2="418.39" y2="16.08"/><path class="cls-6" d="M451.92,16.11a4.48,4.48,0,1,1-4.47-4.49A4.49,4.49,0,0,1,451.92,16.11Z"/><path class="cls-7" d="M30.23,277.83a7.15,7.15,0,1,1-7.13-7.17A7.15,7.15,0,0,1,30.23,277.83Z"/><path class="cls-7" d="M328.59,10.55a7.15,7.15,0,1,1-7.13-7.17A7.15,7.15,0,0,1,328.59,10.55Z"/><path class="cls-6" d="M226,18.49A4.48,4.48,0,1,1,221.48,14,4.48,4.48,0,0,1,226,18.49Z"/><path class="cls-7" d="M309,156.82a4.63,4.63,0,1,1-4.61-4.63A4.62,4.62,0,0,1,309,156.82Z"/><circle class="cls-8" cx="22.76" cy="193.44" r="22.76" transform="translate(-43.83 10.4) rotate(-13.28)"/><path class="cls-2" d="M30.49,187.58a4.72,4.72,0,0,0-6.67.07l-1.2,1.23-1.24-1.22a4.72,4.72,0,1,0-6.62,6.73l4.59,4.52,0,0a4.73,4.73,0,0,0,6.68-.07l4.51-4.61A4.71,4.71,0,0,0,30.49,187.58Z"/><circle class="cls-8" cx="641.82" cy="302.26" r="19.44" transform="translate(-25.75 542.36) rotate(-45)"/><path class="cls-2" d="M648.43,297.26a4,4,0,0,0-5.71.06l-1,1.05-1.06-1a4,4,0,0,0-5.66,5.75l3.92,3.86s0,0,0,0a4.05,4.05,0,0,0,5.71-.06l3.86-4A4,4,0,0,0,648.43,297.26Z"/><circle class="cls-9" cx="650.68" cy="64.77" r="23.85" transform="translate(439.63 683.66) rotate(-76.85)"/><path class="cls-2" d="M658.79,58.63a5,5,0,0,0-7,.07L650.53,60l-1.29-1.28a4.95,4.95,0,0,0-7,7.05l4.82,4.74s0,0,0,0a5,5,0,0,0,7-.08l4.73-4.83A5,5,0,0,0,658.79,58.63Z"/><path class="cls-3" d="M364.81,123.88l-50.43-11.44a4.68,4.68,0,0,1-3.65-4.57V51.43a4.69,4.69,0,0,1,5.88-4.53L367,60.22a4.69,4.69,0,0,1,3.49,4.53v54.56A4.69,4.69,0,0,1,364.81,123.88Z"/><path class="cls-3" d="M358.72,130.35a5.83,5.83,0,0,1-4.43,1.2l-50.42-11.44a4.68,4.68,0,0,1-3.65-4.57V59.1a4.65,4.65,0,0,1,1.56-3.49"/><line class="cls-3" x1="367.83" y1="123.55" x2="358.29" y2="130.67"/><line class="cls-3" x1="301.78" y1="55.61" x2="312.91" y2="47.47"/><path class="cls-9" d="M354.54,75.92c-3.1-4.51-8.29-5.49-11.61-2.21l-2.19,2.17-2.05-3c-3.09-4.51-8.28-5.51-11.62-2.24s-3.53,9.57-.44,14.08l7.62,11.15a.3.3,0,0,0,0,.08,9.77,9.77,0,0,0,4.38,3.63,6.58,6.58,0,0,0,7.23-1.43L354.12,90C357.45,86.73,357.63,80.42,354.54,75.92Z"/><path class="cls-7" d="M76.83,24.74l24.6,30a3.53,3.53,0,0,0,4.29.91l37.84-18.95a3.51,3.51,0,0,0,1.06-5.46L118.76,1.87a3.5,3.5,0,0,0-4.2-.82L78,19.37A3.51,3.51,0,0,0,76.83,24.74Z"/><path class="cls-10" d="M76.83,24.74l24.6,30a3.53,3.53,0,0,0,4.29.91l37.84-18.95a3.51,3.51,0,0,0,1.06-5.46L118.76,1.87a3.5,3.5,0,0,0-4.2-.82L78,19.37A3.51,3.51,0,0,0,76.83,24.74Z"/><path class="cls-10" d="M74.53,31a4.38,4.38,0,0,0,.69,3.37l24.6,30a3.49,3.49,0,0,0,4.28.91L141.94,46.3a3.49,3.49,0,0,0,1.82-2.23"/><line class="cls-10" x1="76.04" y1="22.6" x2="74.46" y2="31.39"/><line class="cls-10" x1="143.76" y1="44.07" x2="145.48" y2="33.88"/><path class="cls-2" d="M115.79,17.2c-3.54-1.07-5.69.6-6.24,3.77l-.27,1.51-2.35-.86c-4-1.67-8.7.62-9.26,3.78s1.84,6.78,5.37,8.08l8.73,3.21,0,0a6.72,6.72,0,0,0,3.92.29,4.54,4.54,0,0,0,3.48-3.69l1.37-7.85C121.14,22.3,119.39,18.29,115.79,17.2Z"/><path class="cls-11" d="M97.44,415.8H231.59a13.38,13.38,0,0,0,13.32-14.6l-27.2-297.52a13.37,13.37,0,0,0-13.32-12.16H70.24a13.38,13.38,0,0,0-13.32,14.6L84.11,403.64A13.38,13.38,0,0,0,97.44,415.8Z"/><path class="cls-2" d="M114,415.8H248.17a13.39,13.39,0,0,0,13.33-14.6L234.3,103.68A13.38,13.38,0,0,0,221,91.52H86.82a13.38,13.38,0,0,0-13.32,14.6l27.2,297.52A13.37,13.37,0,0,0,114,415.8Z"/><path class="cls-12" d="M221,99.94a4.94,4.94,0,0,1,4.94,4.51L253.11,402a5,5,0,0,1-4.94,5.41H114a4.94,4.94,0,0,1-4.94-4.51L81.88,105.35a5,5,0,0,1,4.94-5.41H221m0-8.42H86.82a13.38,13.38,0,0,0-13.32,14.6l27.2,297.52A13.37,13.37,0,0,0,114,415.8H248.17a13.39,13.39,0,0,0,13.33-14.6L234.3,103.68A13.38,13.38,0,0,0,221,91.52Z"/><path class="cls-12" d="M125.43,109.89h67.32a7.55,7.55,0,0,0,7.5-8.39l-.94-9H116.82l1.12,10.67A7.54,7.54,0,0,0,125.43,109.89Z"/><line class="cls-13" x1="178.06" y1="100.11" x2="144.07" y2="100.11"/><g class="cls-14"><path class="cls-11" d="M223.06,286.19c2.56,1.05,47.33,148,47.33,148l-53,.32L189.3,336.18l-13.43,98.46L131,434.33s-2.61-131.57,13.25-163.9Z"/><line class="cls-15" x1="189.3" y1="336.18" x2="206.06" y2="325.97"/><path class="cls-8" d="M249.58,165s16,14.14-8,85.54l-22.55,2.21Z"/><path class="cls-16" d="M295.79,222.09s-7.08-6.89,1.32-16.08l12.66-14.38a2.83,2.83,0,0,1,4.24.07h0a2.84,2.84,0,0,1,.36,3.15L310,203.72l22.19-11.55a3.07,3.07,0,0,1,4.4,1.58h0a3.06,3.06,0,0,1-1.24,3.68l-14.44,8.75.16.84,16.21-6.9a3,3,0,0,1,3.86,2.46h0a3,3,0,0,1-2,3.16l-15.77,7.71.09,1.06,15-4.48c1.35-.25,4.11-1.78,4.85.58h0c1,2.74-2.41,3.62-3.92,4.16l-15.69,5.78.05,1,14.36-3.68a2.14,2.14,0,0,1,2.14,2.53h0a2.14,2.14,0,0,1-2,1.73L321.8,227s-15.46,8.12-21.32,1.85Z"/><path class="cls-17" d="M310,203.72s3.59,8.61-2.77,15.16"/><polygon class="cls-16" points="273.63 220.89 298.4 213.67 306.94 229.16 278.83 240.34 273.63 220.89"/><polygon class="cls-2" points="282.77 216.33 293.12 213.54 301.61 231.16 288.79 236.38 282.77 216.33"/><path class="cls-8" d="M225.61,230,277.07,213a9.58,9.58,0,0,1,11.73,5.54l5.52,13.59a9.58,9.58,0,0,1-4.92,12.32l-48.67,23.29A18,18,0,0,1,217.48,260h0C212.33,250.46,215.54,233.89,225.61,230Z"/><line class="cls-18" x1="249.95" y1="221.94" x2="240.4" y2="224.96"/><path d="M232.11,146s-13.3-5.17-32.82-4.41l-3.82,9.06,19.57,7,19.23-1L236,154Z"/><path class="cls-19" d="M148.74,279.32s49.94,28.48,80.62,9.28L232.84,220l5.8-47.18-6.33-11.21-19.51-5.49-23.53,1.79-24,38.37Z"/><path class="cls-16" d="M190.7,155.62s22.28,24.78,46.68,9.13L233.28,154l-12.92-6.48-24.75.31Z"/><path class="cls-8" d="M200.94,180s-4.53,80.22-19.58,131.43c-.93,3.14-4.8,4.41-7.94,3.51-7-2-27.4-17.82-39.28-39l17.39-113.21a12.79,12.79,0,0,1,6.31-10c6.18-3.61,30.09-6.23,30.09-6.23S201.8,143.59,200.94,180Z"/><polygon class="cls-20" points="200.1 163.67 181.84 173.19 184.57 146.95 199.29 141.58 200.1 163.67"/><path class="cls-8" d="M221.6,315.57c-.24,2,6.67,3,8,1.4h0c2.72-4.26,5.35-9.1,5.75-14.14l6.07-91.13,11.35-34.39a12,12,0,0,0-3.14-12.24,59.81,59.81,0,0,0-16.57-11.19S233.64,213.54,221.6,315.57Z"/><polyline class="cls-17" points="237.06 268.98 241.41 211.7 245.98 192.79"/><polygon class="cls-20" points="232.97 164.18 244.86 176 239.81 155.08 232.11 145.99 232.97 164.18"/><path class="cls-8" d="M161.84,151.38s14.53,26.49-27.83,85.46l-10.17,16.74a19.77,19.77,0,0,1-28.07,6.06h0a19.75,19.75,0,0,1-6.06-26C104.41,207.63,134.22,156.46,161.84,151.38Z"/><line class="cls-17" x1="141.95" y1="225.15" x2="166.88" y2="192.48"/><path class="cls-16" d="M144.41,300.52s5.59-8.15,16.06-1.44l16.33,10a2.83,2.83,0,0,1,.65,4.19h0a2.83,2.83,0,0,1-3,.89l-9.49-2.85,15.15,19.91a3.06,3.06,0,0,1-.8,4.6h0a3.08,3.08,0,0,1-3.85-.6l-11.08-12.74-.8.3,9.56,14.81a3,3,0,0,1-1.77,4.21h0a3,3,0,0,1-3.45-1.44L157.6,326.16l-1,.27,7,14.06c.47,1.29,2.07,4.17-1.15,5.57h0c-1.22.4-2.89-2.66-3.36-3.85l-8.36-14.48-1,.21,6.08,13.53a2.14,2.14,0,0,1-2.14,2.54h0a2.12,2.12,0,0,1-2-1.64L144,327s-10.63-13.86-5.45-20.69Z"/><polygon class="cls-16" points="141.83 278.48 153.15 301.66 139.34 312.71 123.54 286.91 141.83 278.48"/><polygon class="cls-2" points="147.87 286.71 152.38 296.44 136.46 307.8 129.14 296.06 147.87 286.71"/><path class="cls-8" d="M124.74,232.7l25.41,47.83a9.57,9.57,0,0,1-3.46,12.5l-12.46,7.75a9.57,9.57,0,0,1-13-2.75L90,254a18,18,0,0,1,3.74-24.23h0C102.26,223.09,119.14,223.44,124.74,232.7Z"/><line class="cls-17" x1="130.24" y1="243.05" x2="122.87" y2="229.5"/><path class="cls-17" d="M137.16,256.07l13.29,24.75a8.6,8.6,0,0,1-.92,9.48h0"/><path class="cls-11" d="M203.11,75.24s-10.47-3.19-14,7.53,19.51,27.72,19.51,27.72Z"/><path class="cls-11" d="M218.52,59.79S242,46.85,257.07,56.65c19.37,12.62-7.4,33.34-7.4,33.34S215.59,83.1,218.52,59.79Z"/><path class="cls-11" d="M196.06,84.62l23.75,38.17c18.41,2.56,33.43-10.77,35.87-28.34s-8.61-32.75-27-35.31S198.51,67,196.06,84.62Z"/><circle class="cls-21" cx="253.12" cy="108.11" r="8.31" transform="translate(59.99 304.22) rotate(-68.57)"/><polygon class="cls-16" points="232.71 124.05 227.84 158.62 202.14 151.06 216.49 107.47 232.71 124.05"/><path class="cls-21" d="M230.3,140.53s-12.86-8.63-15.82-25.08l18,11.1Z"/><path class="cls-16" d="M253.29,76.14a28.93,28.93,0,0,1,4.08,12.4c.5,8.29,1,20.43-2.48,27.54-5,10.06-11.75,18.47-27.72,14.31a17.74,17.74,0,0,1-3.78-1.47C218,126.13,205,117.41,205.58,98.64,206.83,57,240.71,57.79,253.29,76.14Z"/><path class="cls-11" d="M214.36,100.76a25.34,25.34,0,0,0-7.92-20.19L199.2,92.84l10.62,9.65Z"/><path class="cls-16" d="M195.8,105.38a8.79,8.79,0,1,0,7.32-10.06A8.8,8.8,0,0,0,195.8,105.38Z"/><path class="cls-17" d="M201.74,101.59s4.85-.57,6.63,5.69"/><path class="cls-11" d="M208.82,87.33s10.18-5.91,7.31-16.89l-10.23,0-5.36,10.23Z"/><path class="cls-11" d="M216.15,71.63s7.46,5.6,20.65,2.29,16.72,2.55,16.72,2.55-9.22-18.1-33.21-13.61S216.15,71.63,216.15,71.63Z"/><path class="cls-11" d="M223.49,59.57s-11.14-5.71-18.8-1.32-9.28,18.38-4.15,22.47C200.54,80.72,215,61.45,223.49,59.57Z"/><path class="cls-11" d="M249.66,83.52s-1.12,2.33,2.24,3.19a18,18,0,0,1,4.64,1.63,2,2,0,0,0,2.32-.36h0a1.85,1.85,0,0,0,.16-1.76,5.46,5.46,0,0,0-4.13-4.32C250.91,80.83,249.66,83.52,249.66,83.52Z"/><path class="cls-11" d="M239.78,82s.89,3.22-4,3.22a56.9,56.9,0,0,0-10.43,1.36,3.07,3.07,0,0,1-3.12-1.18h0a1.69,1.69,0,0,1,.27-2.22,19.6,19.6,0,0,1,10.75-4C239.06,79.08,239.78,82,239.78,82Z"/><path class="cls-2" d="M238.75,99.84s-2.55-9.57-14.86-3.16C223.89,96.68,228.32,104.52,238.75,99.84Z"/><g class="cls-22"><path d="M236.23,97.68a4.29,4.29,0,1,1-4.47-4.11A4.29,4.29,0,0,1,236.23,97.68Z"/></g><path class="cls-23" d="M223.49,96.25a9,9,0,0,1,4.28-2.06,13.23,13.23,0,0,1,4.65-.14,8.65,8.65,0,0,1,4.32,1.73,6.05,6.05,0,0,1,2.26,4,.24.24,0,0,1-.22.27.25.25,0,0,1-.28-.21v0a5.48,5.48,0,0,0-2.17-3.55,7.94,7.94,0,0,0-4-1.43,12.29,12.29,0,0,0-4.32.28,8,8,0,0,0-3.69,1.94h0a.59.59,0,1,1-.82-.84Z"/><path class="cls-2" d="M247.19,100.52s2.91-7.92,9.67-.37C256.86,100.15,251.69,106.77,247.19,100.52Z"/><g class="cls-24"><path d="M249.29,99.45c-.34,2.1.68,4,2.27,4.26s3.16-1.23,3.5-3.33-.68-4-2.27-4.25S249.63,97.36,249.29,99.45Z"/></g><path class="cls-23" d="M256.29,100.4a5.11,5.11,0,0,0-4.49-3.1,4.41,4.41,0,0,0-2.77.82,4.58,4.58,0,0,0-1.63,2.44v0a.22.22,0,0,1-.27.15.22.22,0,0,1-.16-.25,4.91,4.91,0,0,1,4.83-4,6.11,6.11,0,0,1,5.63,3.43h0a.63.63,0,0,1-1.13.54Z"/><polyline class="cls-25" points="244.57 102.7 247.32 108.81 244.44 110.43"/><path d="M245.61,114l-14-2.46s-1.22,6.54,6.18,7.69S245.61,114,245.61,114Z"/><g class="cls-26"><polygon class="cls-2" points="246.13 116.29 229.59 113.45 230.6 109.3 249.67 110.98 246.13 116.29"/><path class="cls-27" d="M229.55,121a4.72,4.72,0,1,0,3.58-5.64A4.73,4.73,0,0,0,229.55,121Z"/></g><path class="cls-28" d="M230.05,88.13l10.81,15.73s-3.62,6.42-9,5.51L220.89,94S224.19,87.53,230.05,88.13Z"/><path class="cls-28" d="M255.56,88.91l9.19,15.62s-3.2,6.44-7.86,5.59L247.6,94.88S250.52,88.37,255.56,88.91Z"/><path class="cls-29" d="M241.92,99.2a11.07,11.07,0,1,1-10.71-11.42A11.08,11.08,0,0,1,241.92,99.2Z"/><path class="cls-30" d="M265.73,99.86c-.24,6.11-4.7,10.94-10,10.81s-9.36-5.21-9.12-11.32,4.69-10.94,10-10.8S266,93.75,265.73,99.86Z"/><path class="cls-29" d="M241.92,99.2a5.21,5.21,0,0,1,4.71.16"/><line class="cls-29" x1="212.89" y1="101.4" x2="219.84" y2="98.97"/></g><path class="cls-11" d="M574.45,415.8H440.3A13.38,13.38,0,0,1,427,401.2l27.19-297.52A13.38,13.38,0,0,1,467.5,91.52H601.65A13.38,13.38,0,0,1,615,106.12l-27.2,297.52A13.37,13.37,0,0,1,574.45,415.8Z"/><path class="cls-2" d="M557.87,415.8H423.72a13.39,13.39,0,0,1-13.33-14.6l27.2-297.52a13.38,13.38,0,0,1,13.32-12.16H585.07a13.38,13.38,0,0,1,13.32,14.6l-27.2,297.52A13.37,13.37,0,0,1,557.87,415.8Z"/><path class="cls-12" d="M585.07,99.94a5,5,0,0,1,4.93,5.41L562.81,402.87a4.94,4.94,0,0,1-4.94,4.51H423.72a5,5,0,0,1-4.94-5.41L446,104.45a4.93,4.93,0,0,1,4.93-4.51H585.07m0-8.42H450.91a13.38,13.38,0,0,0-13.32,12.16L410.39,401.2a13.39,13.39,0,0,0,13.33,14.6H557.87a13.37,13.37,0,0,0,13.32-12.16l27.2-297.52a13.38,13.38,0,0,0-13.32-14.6Z"/><path class="cls-12" d="M546.46,109.89H479.14a7.55,7.55,0,0,1-7.5-8.39l.94-9h82.49L554,103.2A7.54,7.54,0,0,1,546.46,109.89Z"/><line class="cls-13" x1="493.83" y1="100.11" x2="527.82" y2="100.11"/><g class="cls-31"><path class="cls-8" d="M477.75,251.21c-23.73,92.37-29,162-29,162l43.62-3.11,37.41-139.22Z"/><path class="cls-8" d="M566.75,326.69l12.65,92.83-43.72-9.36L482,248l43.49-9.84,12.07,12.06C550.3,268.17,563.11,300,566.75,326.69Z"/><polyline class="cls-32" points="511.64 338.37 502.04 310.42 491.75 306.4"/><path class="cls-33" d="M420.67,198.21l-18.12,48.22a13.62,13.62,0,0,0,7.67,17.36h0a13.62,13.62,0,0,0,17.48-7L451.44,205Z"/><path class="cls-9" d="M444.68,160.11s-9.25.66-18.38,8.28S405.61,210,405.61,210s6.28,13.62,44.06,18.44Z"/><path class="cls-33" d="M373.37,188.32l-.34-3a25.76,25.76,0,0,0-4.09-11.27l-3.92-6a2.75,2.75,0,0,0-4.16-.49h0a3.48,3.48,0,0,0-.88,3.82l2.71,7.07L342.45,162a2.11,2.11,0,0,0-3.15.44l-.47.72a2.11,2.11,0,0,0,.28,2.67l13.21,11.56-17-11.18a2.14,2.14,0,0,0-3.12.64l-.31.55a2.12,2.12,0,0,0,.57,2.75l14.49,10.73-12.79-5.73a2.13,2.13,0,0,0-3,1.42l-.06.26a2.12,2.12,0,0,0,1,2.32l12.86,6.9-7.43-2a2.12,2.12,0,0,0-3,2h0a2.11,2.11,0,0,0,1.1,1.77l32.64,17,3.59-7.52A16.43,16.43,0,0,0,373.37,188.32Z"/><path class="cls-34" d="M362.69,178.5a13.91,13.91,0,0,0,.3,11.84"/><polygon class="cls-33" points="426.26 246.25 373.29 189.77 364.4 199.42 404.18 258.87 426.26 246.25"/><line class="cls-35" x1="409.38" y1="228.25" x2="418.54" y2="238.08"/><path class="cls-9" d="M455.77,158s-17.85,1.85-24.94,8.86,5.85,47.82,5.85,47.82l37,55.47s27.89,7.21,57.69-13l-1-83.12-11-13.7c-4.16-5.16-14.6-9-21.19-8.31l-15.34.5Z"/><path class="cls-35" d="M445.46,227.81s-11.21-16.4-11.93-28.05"/><path class="cls-11" d="M550.65,190.81s-11.07,15.29-28.24,19.88l10.21-20.37Z"/><path class="cls-33" d="M507.46,205.56l25,44.77a13.54,13.54,0,0,0,18.13,5.33h0a13.56,13.56,0,0,0,5.94-17.77l-24.17-51.38Z"/><path class="cls-9" d="M495.27,152.2a38.66,38.66,0,0,1,33.66,12.73c17.22,19.2,21.72,25.88,21.72,25.88s-26.24,5.67-42,20.88l-25-29.77Z"/><line class="cls-35" x1="508.61" y1="211.69" x2="497.29" y2="192.79"/><polygon class="cls-33" points="539.78 229.6 479.27 282.69 487.03 293.42 551.64 255.06 539.78 229.6"/><path class="cls-33" d="M480.53,277.48l-2.78-1.16a25.79,25.79,0,0,0-11.84-1.89l-7.11.53a2.74,2.74,0,0,0-2.45,3.39h0a3.49,3.49,0,0,0,2.91,2.63l7.5,1.06-24.23,9.69a2.14,2.14,0,0,0-1.14,3l.4.76a2.13,2.13,0,0,0,2.47,1l16.53-5.94-18,9.45a2.11,2.11,0,0,0-.95,3l.32.54a2.11,2.11,0,0,0,2.68.84L461.22,297,450,305.38a2.12,2.12,0,0,0-.22,3.3l.2.19a2.13,2.13,0,0,0,2.51.27l12.27-7.89-5.38,5.51a2.13,2.13,0,0,0,.34,3.58h0a2.16,2.16,0,0,0,2.09-.1L492.5,290l-4.83-6.79A16.52,16.52,0,0,0,480.53,277.48Z"/><path class="cls-36" d="M499.49,73.9c-6.59,7.21-24.67,10.61-32.51,3.44s-7.36-25.4-.77-32.61,19.56-3.68,27.4,3.49S506.08,66.7,499.49,73.9Z"/><path class="cls-37" d="M482.12,80.9c-2.06,4.4-9.55,5.24-16.72,1.87s-11.3-9.67-9.23-14.07,9.69-5.81,16.85-2.44S484.19,76.49,482.12,80.9Z"/><path class="cls-36" d="M439.76,73.78s-22.07-4-28.56,7.07S429,104,429,104Z"/><ellipse class="cls-36" cx="451.95" cy="96.22" rx="33.72" ry="32.18" transform="translate(-10.03 86.74) rotate(-10.84)"/><path class="cls-38" d="M429.06,135.55a9.14,9.14,0,0,0,1.54-17.31l-.38.87a8.18,8.18,0,1,1-8.76,1.52l-.65-.69a9.14,9.14,0,0,0,8.25,15.61Z"/><path class="cls-39" d="M431.91,115.83a8.33,8.33,0,1,1-7.41-9.16A8.33,8.33,0,0,1,431.91,115.83Z"/><polygon class="cls-33" points="444.86 129.86 451.38 158.92 472.42 155.3 455.22 112.8 444.86 129.86"/><path class="cls-40" d="M448,144.34s10.79-7.65,12.91-24.26l-16,9.78Z"/><path class="cls-33" d="M421,85.16a12.15,12.15,0,0,0-2.6,7.58c-.07,8.13-.5,22.5,3.86,30.28,5.67,10.11,15.91,16.09,29.57,10.68,0,0,18.27-6.92,17.64-29.11C468.47,69.24,435.81,66.85,421,85.16Z"/><path class="cls-9" d="M430.81,121.38s0,3.59,5,2.78a6.87,6.87,0,0,0,5.71-5.09Z"/><path class="cls-36" d="M425.57,94s1.37,1.86-1.88,3a19.78,19.78,0,0,0-4.42,2,2.15,2.15,0,0,1-2.34,0h0a1.43,1.43,0,0,1-.36-1.49,5.16,5.16,0,0,1,3.64-4.3C424,91.87,425.57,94,425.57,94Z"/><path class="cls-36" d="M435.16,91.13s-.61,2.57,4.27,1.88a74.48,74.48,0,0,1,10.44-.45,3.68,3.68,0,0,0,3-1.33h0a1.08,1.08,0,0,0-.46-1.65,22.87,22.87,0,0,0-11-1.55C435.63,88.81,435.16,91.13,435.16,91.13Z"/><path class="cls-2" d="M437.35,105.84s1.7-9.78,14.55-4.46C451.9,101.38,448.16,109.59,437.35,105.84Z"/><g class="cls-41"><path d="M439.68,103.46A4.29,4.29,0,1,0,443.77,99,4.29,4.29,0,0,0,439.68,103.46Z"/></g><path class="cls-23" d="M451.53,101.83a8.13,8.13,0,0,0-3.86-1.61,12.37,12.37,0,0,0-4.33.1,8,8,0,0,0-3.89,1.78,5.52,5.52,0,0,0-1.85,3.73v0a.25.25,0,0,1-.5,0,6.06,6.06,0,0,1,1.9-4.23,8.78,8.78,0,0,1,4.16-2.11,13.44,13.44,0,0,1,4.65-.27,9,9,0,0,1,4.45,1.69.59.59,0,0,1-.7.94l0,0Z"/><path class="cls-2" d="M429,107.26s-3.6-7.65-9.69.47C419.3,107.73,425,113.88,429,107.26Z"/><g class="cls-42"><path d="M426.8,106.37c.52,2.06-.33,4.06-1.9,4.45s-3.26-.95-3.78-3,.33-4,1.89-4.45S426.27,104.31,426.8,106.37Z"/></g><path class="cls-23" d="M418.71,107.52a6.14,6.14,0,0,1,5.33-3.91,4.9,4.9,0,0,1,5.16,3.59.22.22,0,0,1-.15.27.22.22,0,0,1-.26-.13v0a4.58,4.58,0,0,0-1.84-2.29,4.38,4.38,0,0,0-2.83-.57,5.09,5.09,0,0,0-4.21,3.49.63.63,0,1,1-1.21-.37l0,0Z"/><polyline class="cls-43" points="430.82 111.88 429.75 114.85 431.91 115.83"/><path class="cls-9" d="M430.81,121.38s-.12-1.31,2.1-2c3.28-1,8.61-.35,8.61-.35A19.65,19.65,0,0,1,430.81,121.38Z"/><path class="cls-43" d="M430.17,121.3s4.82,1.19,11.87-2.54"/><path class="cls-44" d="M436.22,122.5c0,.27-.6.59-1.44.73s-1.55,0-1.59-.23.6-.59,1.43-.73S436.17,122.24,436.22,122.5Z"/><path class="cls-36" d="M462.86,106.52A16.39,16.39,0,0,1,459,93.65c1.14-9.93,7.18-14.06,7.18-14.06l9.32,16Z"/><circle class="cls-33" cx="471.31" cy="107.41" r="8.49" transform="translate(-2.05 205.39) rotate(-24.53)"/><path class="cls-43" d="M473.84,104.94s-4.71-.31-6.12,5.82"/><path class="cls-38" d="M477.08,128.53a9.13,9.13,0,0,0,1.53-17.31l-.37.87a8.19,8.19,0,1,1-8.77,1.52l-.64-.69a9.14,9.14,0,0,0,8.25,15.61Z"/><path class="cls-36" d="M463.25,83.29s-16.84,5.67-33.1,1.44a16.65,16.65,0,0,0-5.7-.57,6.12,6.12,0,0,0-3.92,1.63s7-14.31,29.34-15S463.25,83.29,463.25,83.29Z"/><polygon class="cls-33" points="451.38 158.92 459.89 167.87 472.42 155.3 461.64 152.2 451.38 158.92"/><polygon class="cls-37" points="459.89 167.87 471.47 152.91 469.99 149.31 482.84 152.49 473.38 174.04 459.89 167.87"/><polygon class="cls-37" points="459.89 167.87 450.19 175.44 442.7 160.41 450.53 154.93 451.38 158.92 459.89 167.87"/></g><path class="cls-45" d="M10.72,415.8h0Z"/></svg>